# Wavefront OBJ file automatically generated by Tiled2Unity

# Vertices (Count = 126)
v 0 -96 0
v -96 -96 0
v -96 0 0
v 0 0 0
v -192 -96 0
v -192 0 0
v -288 -96 0
v -288 0 0
v -384 -96 0
v -384 0 0
v -480 -96 0
v -480 0 0
v -576 -96 0
v -576 0 0
v -672 -96 0
v -672 0 0
v -768 -96 0
v -768 0 0
v -864 -96 0
v -864 0 0
v -960 -96 0
v -960 0 0
v -1056 -96 0
v -1056 0 0
v -1152 -96 0
v -1152 0 0
v -1248 -96 0
v -1248 0 0
v 0 -192 0
v -96 -192 0
v -192 -192 0
v -288 -192 0
v -384 -192 0
v -480 -192 0
v -576 -192 0
v -672 -192 0
v -768 -192 0
v -864 -192 0
v -960 -192 0
v -1056 -192 0
v -1152 -192 0
v -1248 -192 0
v 0 -288 0
v -96 -288 0
v -192 -288 0
v -288 -288 0
v -384 -288 0
v -480 -288 0
v -576 -288 0
v -672 -288 0
v -768 -288 0
v -864 -288 0
v -960 -288 0
v -1056 -288 0
v -1152 -288 0
v -1248 -288 0
v 0 -384 0
v -96 -384 0
v -192 -384 0
v -288 -384 0
v -384 -384 0
v -480 -384 0
v -576 -384 0
v -672 -384 0
v -768 -384 0
v -864 -384 0
v -960 -384 0
v -1056 -384 0
v -1152 -384 0
v -1248 -384 0
v 0 -480 0
v -96 -480 0
v -192 -480 0
v -288 -480 0
v -384 -480 0
v -480 -480 0
v -576 -480 0
v -672 -480 0
v -768 -480 0
v -864 -480 0
v -960 -480 0
v -1056 -480 0
v -1152 -480 0
v -1248 -480 0
v 0 -576 0
v -96 -576 0
v -192 -576 0
v -288 -576 0
v -384 -576 0
v -480 -576 0
v -576 -576 0
v -672 -576 0
v -768 -576 0
v -864 -576 0
v -960 -576 0
v -1056 -576 0
v -1152 -576 0
v -1248 -576 0
v 0 -672 0
v -96 -672 0
v -192 -672 0
v -288 -672 0
v -384 -672 0
v -480 -672 0
v -576 -672 0
v -672 -672 0
v -768 -672 0
v -864 -672 0
v -960 -672 0
v -1056 -672 0
v -1152 -672 0
v -1248 -672 0
v 0 -768 0
v -96 -768 0
v -192 -768 0
v -288 -768 0
v -384 -768 0
v -480 -768 0
v -576 -768 0
v -672 -768 0
v -768 -768 0
v -864 -768 0
v -960 -768 0
v -1056 -768 0
v -1152 -768 0
v -1248 -768 0

# Texture cooridinates (Count = 7)
vt 0.0001220703 0.0001220703
vt 0.9998779 0.0001220703
vt 0.9998779 0.9998779
vt 0.0001220703 0.9998779
vt 0.0001220703 0.04012209
vt 0.9598779 0.04012209
vt 0.9598779 0.9998779

# Normal
vn 0 0 -1

# Groups (Count = 5)

g mesh_0001
f 1/1/1 2/2/1 3/3/1 4/4/1
f 2/1/1 5/2/1 6/3/1 3/4/1
f 5/1/1 7/2/1 8/3/1 6/4/1
f 7/1/1 9/2/1 10/3/1 8/4/1
f 9/1/1 11/2/1 12/3/1 10/4/1
f 11/1/1 13/2/1 14/3/1 12/4/1
f 13/1/1 15/2/1 16/3/1 14/4/1
f 15/1/1 17/2/1 18/3/1 16/4/1
f 17/1/1 19/2/1 20/3/1 18/4/1
f 19/1/1 21/2/1 22/3/1 20/4/1
f 21/1/1 23/2/1 24/3/1 22/4/1
f 23/1/1 25/2/1 26/3/1 24/4/1
f 25/1/1 27/2/1 28/3/1 26/4/1
f 29/1/1 30/2/1 2/3/1 1/4/1
f 30/1/1 31/2/1 5/3/1 2/4/1
f 31/1/1 32/2/1 7/3/1 5/4/1
f 32/1/1 33/2/1 9/3/1 7/4/1
f 33/1/1 34/2/1 11/3/1 9/4/1
f 34/1/1 35/2/1 13/3/1 11/4/1
f 35/1/1 36/2/1 15/3/1 13/4/1
f 36/1/1 37/2/1 17/3/1 15/4/1
f 37/1/1 38/2/1 19/3/1 17/4/1
f 38/1/1 39/2/1 21/3/1 19/4/1
f 39/1/1 40/2/1 23/3/1 21/4/1
f 40/1/1 41/2/1 25/3/1 23/4/1
f 41/1/1 42/2/1 27/3/1 25/4/1
f 43/1/1 44/2/1 30/3/1 29/4/1
f 44/1/1 45/2/1 31/3/1 30/4/1
f 45/1/1 46/2/1 32/3/1 31/4/1
f 46/1/1 47/2/1 33/3/1 32/4/1
f 47/1/1 48/2/1 34/3/1 33/4/1
f 48/1/1 49/2/1 35/3/1 34/4/1
f 49/1/1 50/2/1 36/3/1 35/4/1
f 50/1/1 51/2/1 37/3/1 36/4/1
f 51/1/1 52/2/1 38/3/1 37/4/1
f 52/1/1 53/2/1 39/3/1 38/4/1
f 53/1/1 54/2/1 40/3/1 39/4/1
f 54/1/1 55/2/1 41/3/1 40/4/1
f 55/1/1 56/2/1 42/3/1 41/4/1
f 57/1/1 58/2/1 44/3/1 43/4/1
f 58/1/1 59/2/1 45/3/1 44/4/1
f 59/1/1 60/2/1 46/3/1 45/4/1
f 60/1/1 61/2/1 47/3/1 46/4/1
f 61/1/1 62/2/1 48/3/1 47/4/1
f 62/1/1 63/2/1 49/3/1 48/4/1
f 63/1/1 64/2/1 50/3/1 49/4/1
f 64/1/1 65/2/1 51/3/1 50/4/1
f 65/1/1 66/2/1 52/3/1 51/4/1
f 66/1/1 67/2/1 53/3/1 52/4/1
f 67/1/1 68/2/1 54/3/1 53/4/1
f 68/1/1 69/2/1 55/3/1 54/4/1
f 69/1/1 70/2/1 56/3/1 55/4/1
f 71/1/1 72/2/1 58/3/1 57/4/1
f 72/1/1 73/2/1 59/3/1 58/4/1
f 73/1/1 74/2/1 60/3/1 59/4/1
f 74/1/1 75/2/1 61/3/1 60/4/1
f 75/1/1 76/2/1 62/3/1 61/4/1
f 76/1/1 77/2/1 63/3/1 62/4/1
f 77/1/1 78/2/1 64/3/1 63/4/1
f 78/1/1 79/2/1 65/3/1 64/4/1
f 79/1/1 80/2/1 66/3/1 65/4/1
f 80/1/1 81/2/1 67/3/1 66/4/1
f 81/1/1 82/2/1 68/3/1 67/4/1
f 82/1/1 83/2/1 69/3/1 68/4/1
f 83/1/1 84/2/1 70/3/1 69/4/1
f 85/1/1 86/2/1 72/3/1 71/4/1
f 86/1/1 87/2/1 73/3/1 72/4/1
f 87/1/1 88/2/1 74/3/1 73/4/1
f 88/1/1 89/2/1 75/3/1 74/4/1
f 89/1/1 90/2/1 76/3/1 75/4/1
f 90/1/1 91/2/1 77/3/1 76/4/1
f 91/1/1 92/2/1 78/3/1 77/4/1
f 92/1/1 93/2/1 79/3/1 78/4/1
f 93/1/1 94/2/1 80/3/1 79/4/1
f 94/1/1 95/2/1 81/3/1 80/4/1
f 95/1/1 96/2/1 82/3/1 81/4/1
f 96/1/1 97/2/1 83/3/1 82/4/1
f 97/1/1 98/2/1 84/3/1 83/4/1
f 99/1/1 100/2/1 86/3/1 85/4/1
f 100/1/1 101/2/1 87/3/1 86/4/1
f 101/1/1 102/2/1 88/3/1 87/4/1
f 102/1/1 103/2/1 89/3/1 88/4/1
f 103/1/1 104/2/1 90/3/1 89/4/1
f 104/1/1 105/2/1 91/3/1 90/4/1
f 105/1/1 106/2/1 92/3/1 91/4/1
f 106/1/1 107/2/1 93/3/1 92/4/1
f 107/1/1 108/2/1 94/3/1 93/4/1
f 108/1/1 109/2/1 95/3/1 94/4/1
f 109/1/1 110/2/1 96/3/1 95/4/1
f 110/1/1 111/2/1 97/3/1 96/4/1
f 111/1/1 112/2/1 98/3/1 97/4/1
f 113/1/1 114/2/1 100/3/1 99/4/1
f 114/1/1 115/2/1 101/3/1 100/4/1
f 115/1/1 116/2/1 102/3/1 101/4/1
f 116/1/1 117/2/1 103/3/1 102/4/1
f 117/1/1 118/2/1 104/3/1 103/4/1
f 118/1/1 119/2/1 105/3/1 104/4/1
f 119/1/1 120/2/1 106/3/1 105/4/1
f 120/1/1 121/2/1 107/3/1 106/4/1
f 121/1/1 122/2/1 108/3/1 107/4/1
f 122/1/1 123/2/1 109/3/1 108/4/1
f 123/1/1 124/2/1 110/3/1 109/4/1
f 124/1/1 125/2/1 111/3/1 110/4/1
f 125/1/1 126/2/1 112/3/1 111/4/1

g mesh_0002
f 1/1/1 2/2/1 3/3/1 4/4/1
f 2/1/1 5/2/1 6/3/1 3/4/1
f 5/1/1 7/2/1 8/3/1 6/4/1
f 7/1/1 9/2/1 10/3/1 8/4/1
f 9/1/1 11/2/1 12/3/1 10/4/1
f 11/1/1 13/2/1 14/3/1 12/4/1
f 13/1/1 15/2/1 16/3/1 14/4/1
f 15/1/1 17/2/1 18/3/1 16/4/1
f 17/1/1 19/2/1 20/3/1 18/4/1
f 19/1/1 21/2/1 22/3/1 20/4/1
f 21/1/1 23/2/1 24/3/1 22/4/1
f 23/1/1 25/2/1 26/3/1 24/4/1
f 25/1/1 27/2/1 28/3/1 26/4/1

g mesh_0003
f 29/1/1 30/2/1 2/3/1 1/4/1
f 30/1/1 31/2/1 5/3/1 2/4/1
f 31/1/1 32/2/1 7/3/1 5/4/1
f 32/1/1 33/2/1 9/3/1 7/4/1
f 33/1/1 34/2/1 11/3/1 9/4/1
f 34/1/1 35/2/1 13/3/1 11/4/1
f 35/1/1 36/2/1 15/3/1 13/4/1
f 36/1/1 37/2/1 17/3/1 15/4/1
f 37/1/1 38/2/1 19/3/1 17/4/1
f 38/1/1 39/2/1 21/3/1 19/4/1
f 41/1/1 42/2/1 27/3/1 25/4/1

g mesh_0004
f 39/1/1 40/2/1 23/3/1 21/4/1

g mesh_0005
f 40/1/1 41/2/1 25/3/1 23/4/1

g mesh_0006
f 87/1/1 88/2/1 74/3/1 73/4/1

g mesh_0007
f 90/5/1 91/6/1 77/7/1 76/4/1

g mesh_0008
f 113/1/1 114/2/1 100/3/1 99/4/1
f 114/1/1 115/2/1 101/3/1 100/4/1
f 115/1/1 116/2/1 102/3/1 101/4/1
f 116/1/1 117/2/1 103/3/1 102/4/1
f 117/1/1 118/2/1 104/3/1 103/4/1
f 119/1/1 120/2/1 106/3/1 105/4/1
f 120/1/1 121/2/1 107/3/1 106/4/1
f 121/1/1 122/2/1 108/3/1 107/4/1
f 122/1/1 123/2/1 109/3/1 108/4/1
f 123/1/1 124/2/1 110/3/1 109/4/1
f 124/1/1 125/2/1 111/3/1 110/4/1
f 125/1/1 126/2/1 112/3/1 111/4/1

g mesh_0009
f 1/1/1 2/2/1 3/3/1 4/4/1
f 29/1/1 30/2/1 2/3/1 1/4/1
f 43/1/1 44/2/1 30/3/1 29/4/1
f 57/1/1 58/2/1 44/3/1 43/4/1
f 71/1/1 72/2/1 58/3/1 57/4/1
f 85/1/1 86/2/1 72/3/1 71/4/1
f 99/1/1 100/2/1 86/3/1 85/4/1
f 113/1/1 114/2/1 100/3/1 99/4/1

g mesh_0010
f 17/1/1 19/2/1 20/3/1 18/4/1

g mesh_0011
f 25/1/1 27/2/1 28/3/1 26/4/1
f 41/1/1 42/2/1 27/3/1 25/4/1
f 55/1/1 56/2/1 42/3/1 41/4/1
f 69/1/1 70/2/1 56/3/1 55/4/1
f 83/1/1 84/2/1 70/3/1 69/4/1
f 97/1/1 98/2/1 84/3/1 83/4/1
f 111/1/1 112/2/1 98/3/1 97/4/1
f 125/1/1 126/2/1 112/3/1 111/4/1

g mesh_0012
f 31/1/1 32/2/1 7/3/1 5/4/1

g mesh_0013
f 32/1/1 33/2/1 9/3/1 7/4/1
f 33/1/1 34/2/1 11/3/1 9/4/1

g mesh_0014
f 34/1/1 35/2/1 13/3/1 11/4/1

g mesh_0015
f 44/1/1 45/2/1 31/3/1 30/4/1

g mesh_0016
f 45/1/1 46/2/1 32/3/1 31/4/1

g mesh_0017
f 46/1/1 47/2/1 33/3/1 32/4/1

g mesh_0018
f 47/1/1 48/2/1 34/3/1 33/4/1

g mesh_0019
f 48/1/1 49/2/1 35/3/1 34/4/1

g mesh_0020
f 49/1/1 50/2/1 36/3/1 35/4/1

g mesh_0021
f 73/1/1 74/2/1 60/3/1 59/4/1

g mesh_0022
f 74/1/1 75/2/1 61/3/1 60/4/1

g mesh_0023
f 78/1/1 79/2/1 65/3/1 64/4/1
f 80/1/1 81/2/1 67/3/1 66/4/1
f 82/1/1 83/2/1 69/3/1 68/4/1
f 86/1/1 87/2/1 73/3/1 72/4/1
f 106/1/1 107/2/1 93/3/1 92/4/1
f 108/1/1 109/2/1 95/3/1 94/4/1
f 110/1/1 111/2/1 97/3/1 96/4/1

g mesh_0024
f 88/1/1 89/2/1 75/3/1 74/4/1

g mesh_0025
f 118/1/1 119/2/1 105/3/1 104/4/1

g mesh_0026
f 30/1/1 31/2/1 5/3/1 2/4/1

g mesh_0027
f 37/1/1 38/2/1 19/3/1 17/4/1

g mesh_0028
f 29/1/1 30/2/1 2/3/1 1/4/1
f 30/1/1 31/2/1 5/3/1 2/4/1
f 31/1/1 32/2/1 7/3/1 5/4/1
f 32/1/1 33/2/1 9/3/1 7/4/1
f 33/1/1 34/2/1 11/3/1 9/4/1
f 34/1/1 35/2/1 13/3/1 11/4/1
f 35/1/1 36/2/1 15/3/1 13/4/1
f 36/1/1 37/2/1 17/3/1 15/4/1
f 37/1/1 38/2/1 19/3/1 17/4/1
f 38/1/1 39/2/1 21/3/1 19/4/1
f 39/1/1 40/2/1 23/3/1 21/4/1
f 40/1/1 41/2/1 25/3/1 23/4/1
f 41/1/1 42/2/1 27/3/1 25/4/1
f 43/1/1 44/2/1 30/3/1 29/4/1
f 44/1/1 45/2/1 31/3/1 30/4/1
f 45/1/1 46/2/1 32/3/1 31/4/1
f 46/1/1 47/2/1 33/3/1 32/4/1
f 47/1/1 48/2/1 34/3/1 33/4/1
f 48/1/1 49/2/1 35/3/1 34/4/1
f 49/1/1 50/2/1 36/3/1 35/4/1
f 55/1/1 56/2/1 42/3/1 41/4/1
f 57/1/1 58/2/1 44/3/1 43/4/1
f 69/1/1 70/2/1 56/3/1 55/4/1
f 71/1/1 72/2/1 58/3/1 57/4/1
f 73/1/1 74/2/1 60/3/1 59/4/1
f 74/1/1 75/2/1 61/3/1 60/4/1
f 78/1/1 79/2/1 65/3/1 64/4/1
f 80/1/1 81/2/1 67/3/1 66/4/1
f 82/1/1 83/2/1 69/3/1 68/4/1
f 83/1/1 84/2/1 70/3/1 69/4/1
f 85/1/1 86/2/1 72/3/1 71/4/1
f 86/1/1 87/2/1 73/3/1 72/4/1
f 87/1/1 88/2/1 74/3/1 73/4/1
f 88/1/1 89/2/1 75/3/1 74/4/1
f 90/1/1 91/2/1 77/3/1 76/4/1
f 97/1/1 98/2/1 84/3/1 83/4/1
f 99/1/1 100/2/1 86/3/1 85/4/1
f 106/1/1 107/2/1 93/3/1 92/4/1
f 108/1/1 109/2/1 95/3/1 94/4/1
f 110/1/1 111/2/1 97/3/1 96/4/1
f 111/1/1 112/2/1 98/3/1 97/4/1
f 113/1/1 114/2/1 100/3/1 99/4/1
f 114/1/1 115/2/1 101/3/1 100/4/1
f 115/1/1 116/2/1 102/3/1 101/4/1
f 116/1/1 117/2/1 103/3/1 102/4/1
f 117/1/1 118/2/1 104/3/1 103/4/1
f 118/1/1 119/2/1 105/3/1 104/4/1
f 119/1/1 120/2/1 106/3/1 105/4/1
f 120/1/1 121/2/1 107/3/1 106/4/1
f 121/1/1 122/2/1 108/3/1 107/4/1
f 122/1/1 123/2/1 109/3/1 108/4/1
f 123/1/1 124/2/1 110/3/1 109/4/1
f 124/1/1 125/2/1 111/3/1 110/4/1
f 125/1/1 126/2/1 112/3/1 111/4/1

